<svg width="28" height="28" viewBox="0 0 28 28" fill="none" xmlns="http://www.w3.org/2000/svg">
<path d="M19.9674 22.862V5.11583C20.4302 5.1905 20.8152 5.404 21.1224 5.75633C21.4297 6.10867 21.5833 6.52322 21.5833 7V20.9767C21.5833 21.4542 21.4297 21.8692 21.1224 22.2215C20.8152 22.5738 20.4302 22.7866 19.9674 22.862ZM6.68611 24.7695C6.16423 24.7695 5.71973 24.5859 5.35261 24.2188C4.98473 23.8517 4.80078 23.4068 4.80078 22.8842V5.11583C4.80078 4.59317 4.98473 4.14828 5.35261 3.78117C5.71973 3.41405 6.16423 3.2305 6.68611 3.2305H16.9166C17.4385 3.2305 17.883 3.41405 18.2501 3.78117C18.6172 4.14828 18.8008 4.59317 18.8008 5.11583V22.8842C18.8008 23.4068 18.6172 23.8517 18.2501 24.2188C17.883 24.5859 17.4385 24.7695 16.9166 24.7695H6.68611ZM22.7499 20.9767V7C23.0564 7.07467 23.3053 7.22983 23.4966 7.4655C23.6872 7.70117 23.7824 7.97961 23.7824 8.30083V19.6758C23.7824 19.9978 23.6868 20.2767 23.4954 20.5123C23.3049 20.748 23.0564 20.9032 22.7499 20.9778V20.9767Z" fill="#3C5979"/>
</svg>
