<svg width="28" height="28" viewBox="0 0 28 28" fill="none" xmlns="http://www.w3.org/2000/svg">
<path d="M19.0868 16.3333C19.1802 15.5633 19.2502 14.7933 19.2502 14C19.2502 13.2067 19.1802 12.4367 19.0868 11.6667H23.0302C23.2168 12.4133 23.3335 13.195 23.3335 14C23.3335 14.805 23.2168 15.5867 23.0302 16.3333M17.0218 22.82C17.7218 21.525 18.2585 20.125 18.6318 18.6667H22.0735C20.9432 20.613 19.15 22.0873 17.0218 22.82ZM16.7302 16.3333H11.2702C11.1535 15.5633 11.0835 14.7933 11.0835 14C11.0835 13.2067 11.1535 12.425 11.2702 11.6667H16.7302C16.8352 12.425 16.9168 13.2067 16.9168 14C16.9168 14.7933 16.8352 15.5633 16.7302 16.3333ZM14.0002 23.2867C13.0318 21.8867 12.2502 20.335 11.7718 18.6667H16.2285C15.7502 20.335 14.9685 21.8867 14.0002 23.2867ZM9.3335 9.33333H5.92683C7.04549 7.38175 8.83742 5.90506 10.9668 5.18C10.2668 6.475 9.74183 7.875 9.3335 9.33333ZM5.92683 18.6667H9.3335C9.74183 20.125 10.2668 21.525 10.9668 22.82C8.84189 22.0869 7.05248 20.6123 5.92683 18.6667ZM4.97016 16.3333C4.7835 15.5867 4.66683 14.805 4.66683 14C4.66683 13.195 4.7835 12.4133 4.97016 11.6667H8.9135C8.82016 12.4367 8.75016 13.2067 8.75016 14C8.75016 14.7933 8.82016 15.5633 8.9135 16.3333M14.0002 4.70166C14.9685 6.10166 15.7502 7.665 16.2285 9.33333H11.7718C12.2502 7.665 13.0318 6.10166 14.0002 4.70166ZM22.0735 9.33333H18.6318C18.2667 7.88836 17.726 6.49354 17.0218 5.18C19.1685 5.915 20.9535 7.39666 22.0735 9.33333ZM14.0002 2.33333C7.5485 2.33333 2.3335 7.58333 2.3335 14C2.3335 17.0942 3.56266 20.0617 5.75058 22.2496C6.83393 23.3329 8.12006 24.1923 9.53552 24.7786C10.951 25.3649 12.4681 25.6667 14.0002 25.6667C17.0944 25.6667 20.0618 24.4375 22.2497 22.2496C24.4377 20.0617 25.6668 17.0942 25.6668 14C25.6668 12.4679 25.3651 10.9508 24.7788 9.53536C24.1925 8.11989 23.3331 6.83377 22.2497 5.75042C21.1664 4.66707 19.8803 3.80771 18.4648 3.2214C17.0493 2.6351 15.5323 2.33333 14.0002 2.33333Z" fill="#3C5979"/>
</svg>
